<?xml version="1.0" encoding="UTF-8"?>
<svg width="1200" height="800" viewBox="0 0 1200 800" xmlns="http://www.w3.org/2000/svg">
  <rect width="1200" height="800" fill="#0B0B0B"/>
  <g fill="none" stroke="#222" stroke-width="1">
    <path d="M0 32h1200M0 64h1200M0 96h1200M0 128h1200M0 160h1200M0 192h1200M0 224h1200M0 256h1200M0 288h1200M0 320h1200M0 352h1200M0 384h1200M0 416h1200M0 448h1200M0 480h1200M0 512h1200M0 544h1200M0 576h1200M0 608h1200M0 640h1200M0 672h1200M0 704h1200M0 736h1200M0 768h1200"/>
    <path d="M32 0v800M64 0v800M96 0v800M128 0v800M160 0v800M192 0v800M224 0v800M256 0v800M288 0v800M320 0v800M352 0v800M384 0v800M416 0v800M448 0v800M480 0v800M512 0v800M544 0v800M576 0v800M608 0v800M640 0v800M672 0v800M704 0v800M736 0v800M768 0v800M800 0v800M832 0v800M864 0v800M896 0v800M928 0v800M960 0v800M992 0v800M1024 0v800M1056 0v800M1088 0v800M1120 0v800M1152 0v800M1184 0v800"/>
  </g>
  <circle cx="600" cy="400" r="56" fill="#D8B63C"/>
  <text x="600" y="490" font-family="Poppins, Arial, sans-serif" font-size="26" text-anchor="middle" fill="#fff">
    Mostrar mapa (click)
  </text>
</svg>
